<?xml version="1.0" encoding="utf-8"?>
<!-- Generator: Adobe Illustrator 24.2.0, SVG Export Plug-In . SVG Version: 6.00 Build 0)  -->
<svg version="1.1" id="Layer_1" xmlns="http://www.w3.org/2000/svg" xmlns:xlink="http://www.w3.org/1999/xlink" x="0px" y="0px"
	 viewBox="0 0 209.8 220.7" style="enable-background:new 0 0 209.8 220.7;" xml:space="preserve">
<style type="text/css">
	.st0{fill:#262217;}
	.st1{fill:#5B9BC9;}
	.st2{fill:#D13F4A;}
	.st3{fill:#FFFFFF;}
</style>
<g>
	<g>
		<g>
			<path class="st0" d="M75.8,77.2c0.2-0.3,0.5-0.6,0.7-0.8c0.3-0.2,0.6-0.5,0.8-0.7c0.6-0.4,1.2-0.8,1.9-1.1
				c0.7-0.3,1.3-0.6,2.1-0.7c0.3-0.1,0.7-0.1,1.1-0.2c0.2,0,0.4,0,0.5,0c0.2,0,0.4,0,0.5,0c-0.3,0.1-0.7,0.1-1.1,0.2
				c-0.3,0.1-0.7,0.1-1,0.2l-0.5,0.1l-0.5,0.2c-0.2,0.1-0.3,0.1-0.5,0.2s-0.3,0.1-0.5,0.2c-0.7,0.3-1.3,0.7-1.9,1
				C76.8,76.2,76.2,76.7,75.8,77.2z"/>
		</g>
		<g>
			<path class="st0" d="M83,81.3c-0.2-0.6-0.3-1.1-0.4-1.7c-0.1-0.6,0-1.2,0.1-1.8c0.1-0.6,0.4-1.1,0.8-1.6c0.4-0.4,0.9-0.8,1.5-0.9
				c-0.3,0.1-0.5,0.3-0.7,0.4c-0.2,0.2-0.4,0.4-0.6,0.6c-0.3,0.4-0.6,1-0.7,1.5c-0.1,0.6-0.2,1.1-0.1,1.7c0,0.3,0,0.6,0.1,0.9
				C82.8,80.8,82.9,81.1,83,81.3z"/>
		</g>
	</g>
	<g>
		<path class="st1" d="M148.8,13.4c0,0,5.5,1.6,7.3,6.2c1.8,4.6,9.8,12.8,21,21C177.1,40.5,177.1,17.7,148.8,13.4z"/>
		<path class="st1" d="M175.7,23.6c0,0,8.9,14.1,9.6,28.3c0,0,0-0.7-2.9-3.1c-2.4-2-19.8-10.2-21-16.8c0,0-1.1,6.6,4.8,11.4
			s23.9,16.9,24.4,21C190.6,64.5,197.5,32.8,175.7,23.6z"/>
		<path class="st1" d="M195.6,39.4c0,0,2.9,26.7-0.9,41.3c0,0-0.6,0.3-1.3-2.4c-0.7-2.7,0.8-5.8-9.5-13.8
			c-10.3-8-11.2-11.4-11.2-11.4s-2.7,5.9,7.3,17.6s11.9,11,14.1,18.9c0,0,9.8-16.6,9.8-27.1S195.6,39.4,195.6,39.4z"/>
		<path class="st1" d="M208.4,69.5c0,0-1.6,11-4.3,15.3c-2.7,4.3-10,16.6-10.5,27.1c0,0,0.6-15.1-5.3-21.2c-5.9-6.2-8.2-16-8.2-16
			s-2.7,10.3,0,16.6c2.7,6.4,8.2,14.8,8.2,31c0,0,20.6-16.9,21.3-30.1C210.2,79.1,208.4,69.5,208.4,69.5z"/>
		<path class="st1" d="M180.3,102.1c0,0,4.2,14.6,3.1,25.5c-0.1,1.3-0.4,2.6-0.9,3.9l-2.2,6.4l22.1-21.7c0,0,6.2-6.6,7.2-10.3
			c0,0,2.9,17.3-15.4,29.9c-18.3,12.5-25.4,13.5-25.4,13.5s5.5-7.1,5.7-16.2C174.9,124,176.2,108.9,180.3,102.1z"/>
		<path class="st1" d="M171.4,124.4c0,0-7.3,5-11.4,15.3c-4.1,10.3-10.5,25.1-14.6,27.6c0,0,15.8,1.1,31-5.7s22.3-21.2,23.5-24.9
			c0,0-9.6,8.9-18.9,12.5c-9.4,3.7-26.9,14.4-26.9,14.4s8.9-7.3,10.5-13.2C166.2,144.5,167.4,128.1,171.4,124.4z"/>
		<path class="st1" d="M151.8,149.3c0,0-8.7,20.1-23,23.9c0,0,40.4-0.4,50.1-7.3c0,0-17.3,19.8-50.1,14.4c0,0-16.8-3.7-19.2-5.2
			c0,0,9.4-2.1,17.4-7.7C134.9,161.9,145.6,150.5,151.8,149.3z"/>
		<path class="st1" d="M102.1,176.9c0,0,17.3,9.6,27.6,9.6c10.3,0,17.8-2.3,17.8-2.3s-6.4,10.5-30.8,8.4c0,0-8.7-1.8-10.3-3
			l-0.9-8.4L102.1,176.9z"/>
	</g>
	<g>
		<path class="st1" d="M61,13.8c0,0-5.5,1.6-7.3,6.2c-1.8,4.6-9.8,12.8-21,21C32.7,40.9,32.7,18.1,61,13.8z"/>
		<path class="st1" d="M34.1,24c0,0-8.9,14.1-9.6,28.3c0,0,0-0.7,2.9-3.1c2.4-2,19.8-10.2,21-16.8c0,0,1.1,6.6-4.8,11.4
			s-23.9,16.9-24.4,21C19.2,64.9,12.3,33.2,34.1,24z"/>
		<path class="st1" d="M14.2,39.8c0,0-2.9,26.7,0.9,41.3c0,0,0.6,0.3,1.3-2.4c0.7-2.7-0.8-5.8,9.5-13.8S37,53.5,37,53.5
			s2.7,5.9-7.3,17.6S17.9,82,15.6,89.9c0,0-9.8-16.6-9.8-27.1S14.2,39.8,14.2,39.8z"/>
		<path class="st1" d="M1.5,69.9c0,0,1.6,11,4.3,15.3s10,16.6,10.5,27.1c0,0-0.6-15.1,5.3-21.2c5.9-6.2,8.2-16,8.2-16
			s2.7,10.3,0,16.6s-8.2,14.8-8.2,31c0,0-20.6-16.9-21.3-30.1S1.5,69.9,1.5,69.9z"/>
		<path class="st1" d="M29.5,102.5c0,0-4.2,14.6-3.1,25.5c0.1,1.3,0.4,2.6,0.9,3.9l2.2,6.4L7.4,116.6c0,0-6.2-6.6-7.2-10.3
			c0,0-2.9,17.3,15.4,29.9c18.3,12.5,25.4,13.5,25.4,13.5s-5.5-7.1-5.7-16.2S33.6,109.3,29.5,102.5z"/>
		<path class="st1" d="M38.4,124.9c0,0,7.3,5,11.4,15.3c4.1,10.3,10.5,25.1,14.6,27.6c0,0-15.8,1.1-31-5.7S11,140.8,9.9,137.2
			c0,0,9.6,8.9,18.9,12.5c9.4,3.7,26.9,14.4,26.9,14.4s-8.9-7.3-10.5-13.2C43.6,144.9,42.4,128.5,38.4,124.9z"/>
		<path class="st1" d="M58,149.7c0,0,8.7,20.1,23,23.9c0,0-40.4-0.4-50.1-7.3c0,0,17.3,19.8,50.1,14.4c0,0,16.8-3.7,19.2-5.2
			c0,0-9.4-2.1-17.4-7.7C74.9,162.3,64.2,150.9,58,149.7z"/>
		<path class="st1" d="M107.8,177.3c0,0-17.3,9.6-27.6,9.6s-17.8-2.3-17.8-2.3s6.4,10.5,30.8,8.4c0,0,8.7-1.8,10.3-3l0.9-8.4
			L107.8,177.3z"/>
	</g>
	<g>
		<path d="M65,25.9L61.5,7.3l0.2-0.1c0,0,3.8-1.8,11.2-3.6C79.7,2,91.2,0,107.1,0c8.8,0,21.5,0.7,32.1,4c6.4,2,9,4,9.1,4l0.2,0.1
			l-4.8,17.7l-0.3-0.1c0,0-0.2,0-0.5-0.1c-3.7-0.8-13.4-2.7-23.4-4c-5.1-0.6-9.7-1-13.4-1c-5.8-0.1-11.5,0.1-17.1,0.7
			c-8.2,0.8-16.1,2.3-23.6,4.5L65,25.9z M103.4,20c0.9,0,1.8,0,2.6,0c3.8,0.1,8.4,0.4,13.5,1c10,1.2,19.7,3.2,23.5,4
			c0.1,0,0.2,0,0.2,0.1l4.6-16.7c-0.7-0.5-3.4-2.2-8.8-3.8c-5.8-1.8-16.1-4-31.9-4c-15.8,0-27.3,1.9-34.1,3.6
			c-6.4,1.5-10,3.1-10.9,3.5l3.3,17.4c7.4-2.1,15.3-3.6,23.4-4.4C93.6,20.3,98.5,20,103.4,20z"/>
	</g>
	<g>
		<polygon points="119.5,32.3 119.5,21.4 120.1,21.4 120.1,31.5 143.5,25.3 143.7,25.9 		"/>
	</g>
	<g>
		<polygon points="89.1,32.4 65,25.9 65.2,25.3 88.5,31.6 88.5,21.1 89.1,21.1 		"/>
	</g>
	<g>
		<path d="M108,220.7l-4.6-3.3c-1.1,0-11.4-0.4-24.9-3.1c-13.1-2.7-32.1-8.2-47.7-19.5l-0.2-0.1l0.9-3.9l6.3-13.2l0.3,0.2
			c0.1,0.1,9.2,5.6,21.7,10.9c20.8,8.7,34.8,9.7,42.9,9l0.1,0l4.3,2.8l5.6-3.1l0.1,0c0.1,0,7.9-0.2,18.4-2
			c9.7-1.7,23.8-5.3,35.6-12.5l0.2-0.1l9.5,13.2v4.1l-0.1,0.1c-0.1,0-5.6,4-16.1,8.1c-9.6,3.8-25.5,8.5-46.6,9.4L108,220.7z
			 M31.3,194.4c15.5,11.1,34.2,16.6,47.3,19.3c14.2,2.9,24.8,3.1,24.9,3.1l0.1,0l4.5,3.2l5.4-2.9l0.1,0c21-0.9,36.9-5.6,46.5-9.4
			c9.5-3.7,14.9-7.4,15.8-8v-3.6l-9-12.6c-11.8,7.1-25.8,10.7-35.5,12.4c-10,1.8-17.6,2-18.4,2l-5.7,3.2l-4.4-2.9
			c-1.3,0.1-2.7,0.2-4.3,0.2c-8.5,0-21.2-1.9-38.8-9.2c-11.3-4.7-19.8-9.7-21.5-10.7l-6,12.6L31.3,194.4z"/>
	</g>
	<g>
		<path class="st0" d="M109.9,147L109.9,147c-1.2-1-2.3-2.2-3.4-3.4C107.5,144.6,108.6,145.8,109.9,147z"/>
		<g>
			<path d="M109.9,117.6V147c-1.3-1.2-2.4-2.3-3.4-3.4c0,0-0.1-0.1-0.1-0.2c-0.8-1-1.6-2-2.3-3c0,0,0,0,0,0
				c-1.8-2.8-3.1-5.9-3.3-9.2v-16.7C104.1,115.8,107.3,116.7,109.9,117.6z"/>
			<path class="st0" d="M109.9,149.1v20.8h-9v-27C103.5,145.1,106.9,147.3,109.9,149.1z"/>
			<path d="M109.9,62.8v47.6c-3.4-1.3-6.8-2.4-9-3.3V65C103.2,64.1,106.4,63.1,109.9,62.8z"/>
			<path d="M111.6,42.8c0,1.1-0.7,2.2-1.7,3v11.6l-9,0.1V46.1c-1.3-0.8-2.1-2-2.1-3.2c0-2.4,2.9-4.4,6.4-4.4
				C108.8,38.4,111.6,40.4,111.6,42.8z"/>
		</g>
		<path class="st2" d="M116.6,91.9c-1.9,0.4-4.2,0.6-6.7,0.9v-8.1c6-0.7,15.8-2.4,15.8-9.2c0-7.5-6.4-12.8-14.1-12.8
			c-0.6,0-1.1,0-1.7,0.1c-3.5,0.2-6.7,1.2-9,2.1c-1,0.4-1.8,0.7-2.4,1c-0.8,0.4-1.4,1-1.8,1.7c-0.3,0.6-0.8,1.3-1.4,2.1
			c-1.3,1.7-3.2,3.6-5.7,4.5c-5.1,1.9-8.3-0.2-8.3-0.2s0-0.1,0-0.3c0-2,0.5-15.1,14-15.9l5.6-0.4l6.3-0.4c3.9-0.3,7.8,0.1,11.6,1.1
			c0.7,0.2,1.4,0.4,2.1,0.6c5.6,1.9,11.4,5.7,12.3,13.4C135,86.7,123.3,90.5,116.6,91.9z"/>
		<path class="st2" d="M119.6,154.3c-0.2-0.1-4.7-2.2-9.7-5.2c-3.1-1.8-6.4-4-9-6.2c-1.1-0.9-2.1-1.8-2.9-2.8
			c-3.9-4.4-0.2-7.4,2.9-8.9l0,0c0.1,3.3,1.4,6.4,3.3,9.2c0,0,0,0,0,0c0.7,1,1.4,2,2.3,3c0,0.1,0.1,0.1,0.1,0.2
			c1.1,1.2,2.2,2.4,3.4,3.5V147c1.9,1.7,4.1,3.5,6.7,5.3c0,0,0.1,0,0.1,0.1C117.6,153,118.6,153.6,119.6,154.3z"/>
		<path class="st2" d="M109.9,147L109.9,147c-1.2-1-2.3-2.2-3.4-3.4C107.5,144.6,108.6,145.8,109.9,147z"/>
		<path class="st2" d="M118.7,129.9c0,0-3.2,1.3-6.7,2.8c-0.7,0.3-1.4,0.6-2.1,0.9v-6l3-1.2c2.3-0.9,3.4-3.6,2.3-5.8
			c0,0,0-0.1-0.1-0.1c-0.6-1.1-2.6-2-5.3-3c-2.6-0.9-5.9-1.9-9-3.1c-6.5-2.5-12.7-6.3-12.6-13.4c0.1-9.5,6.6-13.3,12.6-14.9v8.3
			c-2.7,1-4.6,2.5-4.6,5.1c0,0-0.1,0.5-0.1,1.3c0,1.7,0.7,4.7,4.8,6.3c2.3,0.9,5.6,1.9,9,3.3c6.4,2.5,13,5.9,13.5,11
			C124.1,127.7,118.7,129.9,118.7,129.9z"/>
		<path class="st2" d="M109.9,147L109.9,147c-1.2-1-2.3-2.2-3.4-3.4C107.5,144.6,108.6,145.8,109.9,147z"/>
	</g>
	<path class="st3" d="M88.5,68.3v0.3c0,0.9,1,1.6,1.8,1.2l0.7-0.3c0.5-0.2,0.8-0.7,0.8-1.2l0,0c0-0.7-0.6-1.3-1.3-1.3h-0.7
		C89.1,67,88.5,67.6,88.5,68.3z"/>
	<g>
		<path d="M75.9,12.8c-0.2-0.8-0.4-1.7-0.6-2.5l0,0c0,0.8-0.1,1.6-0.2,2.5l-0.3,2.8l-0.9,0.2l-1.3-2.4c-0.4-0.7-0.8-1.5-1.1-2.2l0,0
			c0.1,0.8,0.3,1.8,0.4,2.6l0.4,2.5l-1,0.2l-0.8-6.1l1.5-0.3l1.3,2.3c0.4,0.7,0.7,1.3,1,2l0,0c0-0.7,0.1-1.5,0.2-2.2l0.3-2.6L76,9
			l1.6,6l-1.1,0.2L75.9,12.8z"/>
		<path d="M78.9,9c0.1,0.3-0.1,0.6-0.5,0.7c-0.4,0.1-0.7-0.2-0.7-0.5c-0.1-0.3,0.1-0.6,0.5-0.7C78.6,8.5,78.9,8.7,78.9,9z
			 M78.7,14.9L78,10.5l1.1-0.2l0.8,4.4L78.7,14.9z"/>
		<path d="M80.5,11.4c-0.1-0.5-0.1-0.9-0.2-1.3l1-0.1l0.2,0.7l0,0c0.1-0.4,0.6-0.9,1.3-1c0.8-0.1,1.6,0.3,1.9,1.7l0.4,2.6L83.9,14
			l-0.4-2.5c-0.1-0.6-0.4-1.1-1-1c-0.4,0.1-0.7,0.4-0.8,0.8c0,0.1,0,0.2,0,0.4l0.4,2.6L81,14.5L80.5,11.4z"/>
		<path d="M86.6,7.9c0,0.3-0.2,0.6-0.6,0.7c-0.4,0-0.7-0.2-0.7-0.5c0-0.3,0.2-0.6,0.6-0.7C86.3,7.3,86.6,7.6,86.6,7.9z M86.2,13.7
			l-0.6-4.4l1.1-0.1l0.6,4.4L86.2,13.7z"/>
		<path d="M88.3,12.4c0.3,0.1,0.8,0.2,1.2,0.2c0.5-0.1,0.7-0.3,0.7-0.6c0-0.3-0.2-0.4-0.8-0.6c-0.9-0.2-1.3-0.6-1.4-1.2
			c-0.1-0.8,0.5-1.5,1.5-1.6c0.5-0.1,0.9,0,1.2,0.1l-0.1,0.8c-0.2-0.1-0.6-0.2-1-0.2c-0.4,0-0.6,0.3-0.6,0.5c0,0.3,0.3,0.4,0.8,0.5
			c0.8,0.2,1.3,0.6,1.3,1.2c0.1,0.8-0.5,1.5-1.7,1.6c-0.5,0.1-1,0-1.4-0.2L88.3,12.4z"/>
		<path d="M93,7.2l0.1,1.3l1.1-0.1l0.1,0.8l-1.1,0.1l0.2,2c0,0.5,0.2,0.8,0.6,0.8c0.2,0,0.3-0.1,0.4-0.1l0.1,0.9
			c-0.2,0.1-0.4,0.1-0.8,0.2c-0.4,0-0.8-0.1-1-0.3c-0.3-0.2-0.4-0.6-0.5-1.2l-0.2-2.1l-0.6,0.1l-0.1-0.8l0.6-0.1l-0.1-1L93,7.2z"/>
		<path d="M95.2,9.8c0-0.6-0.1-1-0.1-1.4l1-0.1l0.1,0.8l0,0c0.2-0.6,0.7-1,1.2-1c0.1,0,0.2,0,0.3,0l0.1,1.1c-0.1,0-0.2,0-0.3,0
			c-0.5,0-0.9,0.4-0.9,0.9c0,0.1,0,0.2,0,0.4l0.2,2.3l-1.1,0.1L95.2,9.8z"/>
		<path d="M99.4,8.1l0.9,2.4c0.1,0.3,0.2,0.6,0.3,0.9l0,0c0.1-0.3,0.1-0.6,0.2-0.9l0.6-2.4l1.2,0l-1,3.1c-0.5,1.7-0.9,2.5-1.4,2.9
			c-0.4,0.4-0.9,0.6-1.2,0.6l-0.3-0.9c0.2-0.1,0.4-0.2,0.6-0.3c0.2-0.1,0.4-0.4,0.6-0.7c0-0.1,0.1-0.1,0.1-0.2c0,0,0-0.1-0.1-0.2
			l-1.8-4L99.4,8.1z"/>
		<path d="M109.5,10.1c0,1.6-1.2,2.4-2.3,2.4c-1.3,0-2.2-0.9-2.2-2.3c0-1.5,1-2.4,2.3-2.4C108.6,7.8,109.5,8.7,109.5,10.1z
			 M106.2,10.1c0,0.9,0.4,1.5,1.1,1.5c0.6,0,1.1-0.6,1.1-1.5c0-0.7-0.3-1.5-1.1-1.5C106.5,8.6,106.2,9.4,106.2,10.1z"/>
		<path d="M110.5,12.4l0.1-3.6l-0.6,0l0-0.8l0.6,0l0-0.2c0-0.6,0.2-1.2,0.6-1.5c0.3-0.3,0.8-0.4,1.2-0.4c0.3,0,0.5,0.1,0.7,0.1
			l-0.1,0.9c-0.1-0.1-0.3-0.1-0.5-0.1c-0.6,0-0.8,0.4-0.8,1l0,0.2l1,0l0,0.8l-1,0l-0.1,3.6L110.5,12.4z"/>
		<path d="M116.8,6.6L116.6,9l2.6,0.2l0.2-2.5l1.1,0.1l-0.5,6.2l-1.1-0.1l0.2-2.7l-2.6-0.2l-0.2,2.7l-1.1-0.1l0.5-6.2L116.8,6.6z"/>
		<path d="M122.3,11.4c-0.1,0.8,0.5,1.2,1.2,1.3c0.5,0.1,0.9,0,1.3,0l0.1,0.8c-0.4,0.1-0.9,0.1-1.6,0.1c-1.4-0.2-2.2-1.2-2-2.5
			c0.2-1.2,1.1-2.3,2.5-2.1c1.4,0.2,1.7,1.4,1.6,2.4c0,0.2-0.1,0.4-0.1,0.5L122.3,11.4z M124.3,10.9c0.1-0.4,0-1.1-0.8-1.2
			c-0.7-0.1-1.1,0.5-1.2,0.9L124.3,10.9z"/>
		<path d="M128.3,14.3l0-0.5l0,0c-0.3,0.3-0.8,0.5-1.4,0.3c-0.9-0.2-1.3-0.9-1.1-1.6c0.2-1.1,1.3-1.5,2.9-1.2l0-0.1
			c0.1-0.3,0-0.8-0.8-0.9c-0.4-0.1-0.9,0-1.2,0.1l-0.1-0.8c0.4-0.1,1-0.2,1.7-0.1c1.4,0.3,1.7,1.2,1.5,2.2l-0.3,1.6
			c-0.1,0.4-0.1,0.8-0.1,1.1L128.3,14.3z M128.5,12.1c-0.8-0.2-1.6-0.1-1.7,0.5c-0.1,0.4,0.2,0.7,0.5,0.7c0.4,0.1,0.8-0.1,1-0.4
			c0-0.1,0.1-0.2,0.1-0.2L128.5,12.1z"/>
		<path d="M131.7,8.4l1.1,0.2l-1.4,6.4l-1.1-0.2L131.7,8.4z"/>
		<path d="M135.3,10l-0.3,1.2l1,0.3l-0.2,0.8l-1-0.3l-0.5,1.9c-0.1,0.5-0.1,0.8,0.4,0.9c0.2,0,0.3,0.1,0.4,0.1l-0.2,0.8
			c-0.2,0-0.5,0-0.8-0.1c-0.4-0.1-0.7-0.3-0.9-0.6c-0.2-0.3-0.2-0.7,0-1.3l0.5-2l-0.6-0.2l0.2-0.8l0.6,0.2l0.2-1L135.3,10z"/>
		<path d="M137.6,9.8l1.1,0.3l-0.8,2.5l0,0c0.2-0.2,0.4-0.3,0.7-0.3c0.2-0.1,0.5-0.1,0.8,0c0.7,0.2,1.3,0.9,0.9,2.3l-0.8,2.5
			l-1.1-0.3l0.7-2.4c0.2-0.6,0.1-1.2-0.5-1.3c-0.4-0.1-0.8,0.1-1,0.4c-0.1,0.1-0.1,0.2-0.1,0.3l-0.8,2.6l-1.1-0.3L137.6,9.8z"/>
	</g>
	<g>
		<path d="M42.1,187.1c0.4,0.2,0.9,0.4,1.5,0.8c0.7,0.4,1.1,0.9,1.3,1.4c0.1,0.5,0.1,1-0.2,1.5c-0.3,0.5-0.7,0.8-1.2,0.9
			c-0.6,0.1-1.3-0.1-2-0.5c-0.2-0.1-0.3-0.2-0.4-0.3l-1.2,2l-0.9-0.6L42.1,187.1z M41.5,190.1c0.1,0.1,0.2,0.2,0.4,0.3
			c0.7,0.4,1.4,0.4,1.8-0.2c0.4-0.6,0.2-1.1-0.5-1.6c-0.3-0.2-0.5-0.3-0.6-0.3L41.5,190.1z"/>
		<path d="M44.7,192.3c0.3-0.5,0.5-0.9,0.7-1.3l0.9,0.5l-0.4,0.8l0,0c0.5-0.4,1.1-0.5,1.5-0.2c0.1,0.1,0.1,0.1,0.2,0.2l-0.5,0.9
			c-0.1-0.1-0.1-0.1-0.3-0.2c-0.5-0.3-1-0.1-1.3,0.2c-0.1,0.1-0.1,0.2-0.2,0.3l-1.1,2l-1-0.6L44.7,192.3z"/>
		<path d="M50.9,196.5c-0.8,1.5-2.1,1.6-3.1,1.1c-1.1-0.6-1.6-1.8-0.9-3.1c0.7-1.3,1.9-1.7,3.1-1C51.2,194.1,51.6,195.3,50.9,196.5z
			 M47.9,195c-0.4,0.8-0.3,1.5,0.3,1.9c0.6,0.3,1.3-0.1,1.7-0.9c0.3-0.6,0.4-1.5-0.3-1.8C48.9,193.8,48.3,194.4,47.9,195z"/>
		<path d="M52.2,196.2c0.2-0.5,0.4-0.9,0.5-1.2l0.9,0.4l-0.2,0.6l0,0c0.3-0.2,0.9-0.4,1.6-0.1c0.5,0.2,0.8,0.7,0.8,1.3l0,0
			c0.2-0.2,0.5-0.3,0.7-0.3c0.3-0.1,0.6,0,0.9,0.1c0.7,0.3,1.2,1.1,0.6,2.4l-1.1,2.4l-1-0.5l1-2.2c0.3-0.7,0.3-1.2-0.2-1.4
			c-0.4-0.2-0.7,0-1,0.2c-0.1,0.1-0.2,0.2-0.2,0.3l-1.1,2.4l-1-0.5l1.1-2.4c0.3-0.6,0.2-1.1-0.3-1.3c-0.4-0.2-0.8,0-1,0.3
			c-0.1,0.1-0.2,0.2-0.2,0.3l-1.1,2.4l-1-0.5L52.2,196.2z"/>
		<path d="M63,201.7c-0.6,1.5-1.9,1.8-3,1.4c-1.2-0.5-1.8-1.6-1.2-3c0.5-1.4,1.8-1.8,3-1.4C63,199.3,63.5,200.5,63,201.7z
			 M59.8,200.6c-0.3,0.8-0.2,1.6,0.5,1.8c0.6,0.2,1.2-0.2,1.6-1c0.3-0.6,0.3-1.5-0.5-1.8C60.7,199.3,60.1,199.9,59.8,200.6z"/>
		<path d="M66.3,199.2l-0.4,1.2l1,0.4l-0.3,0.8l-1-0.4l-0.7,1.9c-0.2,0.5-0.1,0.8,0.3,1c0.2,0.1,0.3,0.1,0.4,0.1l-0.3,0.8
			c-0.2,0-0.5-0.1-0.8-0.2c-0.4-0.1-0.7-0.4-0.8-0.7c-0.1-0.3-0.1-0.7,0.1-1.3l0.7-2l-0.6-0.2l0.3-0.8l0.6,0.2l0.3-1L66.3,199.2z"/>
		<path d="M67.6,203.7c-0.2,0.8,0.3,1.3,1,1.5c0.5,0.2,0.9,0.2,1.2,0.2l-0.1,0.8c-0.4,0-1,0-1.6-0.2c-1.4-0.4-1.9-1.6-1.5-2.9
			c0.4-1.2,1.5-2.1,2.8-1.6c1.4,0.4,1.5,1.7,1.2,2.7c-0.1,0.2-0.1,0.4-0.2,0.4L67.6,203.7z M69.7,203.6c0.1-0.4,0.2-1.1-0.5-1.3
			c-0.7-0.2-1.1,0.3-1.3,0.7L69.7,203.6z"/>
		<path d="M71.1,205.8c0.2,0.2,0.6,0.5,1,0.6c0.5,0.1,0.7,0,0.8-0.3c0.1-0.3,0-0.5-0.5-0.8c-0.8-0.5-1-1.1-0.8-1.6
			c0.2-0.8,1-1.2,2-0.9c0.5,0.1,0.9,0.4,1.1,0.6l-0.4,0.7c-0.2-0.2-0.5-0.4-0.8-0.5c-0.4-0.1-0.7,0-0.7,0.3
			c-0.1,0.3,0.1,0.5,0.6,0.8c0.7,0.5,0.9,1,0.8,1.6c-0.2,0.8-1,1.2-2.1,0.8c-0.5-0.2-1-0.4-1.2-0.7L71.1,205.8z"/>
		<path d="M79.1,202.6l-0.6,2.4l2.5,0.6l0.6-2.4l1.1,0.3l-1.4,6l-1.1-0.3l0.6-2.7l-2.5-0.6l-0.6,2.7l-1.1-0.3l1.4-6L79.1,202.6z"/>
		<path d="M83.9,208c-0.1,0.8,0.4,1.3,1.1,1.4c0.5,0.1,0.9,0.1,1.3,0l0,0.8c-0.4,0.1-1,0.1-1.6,0c-1.4-0.3-2.1-1.3-1.9-2.6
			c0.2-1.2,1.2-2.2,2.6-2c1.4,0.3,1.7,1.5,1.5,2.5c0,0.2-0.1,0.4-0.1,0.5L83.9,208z M86,207.6c0.1-0.4,0-1.1-0.7-1.2
			c-0.7-0.1-1.1,0.4-1.2,0.9L86,207.6z"/>
		<path d="M90.1,211l0-0.5l0,0c-0.3,0.3-0.8,0.5-1.4,0.4c-0.9-0.1-1.3-0.8-1.2-1.5c0.2-1.1,1.2-1.5,2.9-1.3l0-0.1
			c0-0.3,0-0.8-0.8-0.9c-0.4-0.1-0.9,0-1.2,0.2l-0.1-0.8c0.4-0.2,1-0.3,1.7-0.2c1.4,0.2,1.7,1.2,1.6,2.1l-0.2,1.6
			c-0.1,0.4-0.1,0.8-0.1,1.1L90.1,211z M90.2,208.8c-0.8-0.1-1.6-0.1-1.7,0.6c-0.1,0.4,0.2,0.7,0.5,0.7c0.4,0.1,0.8-0.2,1-0.5
			c0-0.1,0.1-0.2,0.1-0.2L90.2,208.8z"/>
		<path d="M93.1,204.8l1.1,0.1l-0.8,6.5l-1.1-0.1L93.1,204.8z"/>
		<path d="M96.6,206l-0.1,1.3l1.1,0.1l-0.1,0.8l-1.1-0.1l-0.2,2c-0.1,0.5,0.1,0.8,0.5,0.9c0.2,0,0.3,0,0.4,0l-0.1,0.9
			c-0.2,0-0.5,0.1-0.8,0c-0.4,0-0.7-0.2-0.9-0.5c-0.2-0.3-0.3-0.7-0.2-1.3l0.2-2.1l-0.6-0.1l0.1-0.8l0.6,0.1l0.1-1L96.6,206z"/>
		<path d="M98.5,205.4l1.1,0.1l-0.2,2.7l0,0c0.1-0.2,0.3-0.4,0.6-0.5c0.2-0.1,0.5-0.2,0.8-0.2c0.8,0,1.5,0.6,1.4,2l-0.2,2.6L101,212
			l0.1-2.5c0-0.7-0.2-1.2-0.8-1.2c-0.4,0-0.8,0.2-0.9,0.6c0,0.1-0.1,0.2-0.1,0.3l-0.2,2.7l-1.1-0.1L98.5,205.4z"/>
		<path d="M109.4,212.2c-0.2-0.2-0.3-0.3-0.5-0.5c-0.5,0.4-1,0.6-1.7,0.6c-1.4,0-2.1-0.8-2.1-1.7c0-0.8,0.5-1.4,1.2-1.8l0,0
			c-0.3-0.3-0.5-0.8-0.5-1.2c0-0.8,0.6-1.6,1.7-1.6c0.9,0,1.5,0.5,1.5,1.4c0,0.6-0.4,1.2-1.3,1.6l0,0c0.4,0.5,0.9,1,1.3,1.4
			c0.3-0.4,0.4-1,0.6-1.6l1,0c-0.2,1-0.4,1.7-1,2.3c0.3,0.4,0.7,0.7,1.1,1.2L109.4,212.2z M108.4,211.1c-0.4-0.4-1-1-1.5-1.7
			c-0.3,0.2-0.6,0.5-0.6,1c0,0.6,0.5,1.1,1.1,1.1C107.8,211.5,108.2,211.3,108.4,211.1z M106.8,207.4c0,0.4,0.2,0.7,0.5,1
			c0.5-0.3,0.8-0.6,0.8-1c0-0.3-0.2-0.7-0.6-0.7C107.1,206.7,106.8,207,106.8,207.4z"/>
		<path d="M113.2,206c0.4-0.1,1-0.2,1.7-0.2c0.8-0.1,1.4,0.1,1.9,0.4c0.4,0.3,0.7,0.7,0.7,1.3c0,0.6-0.1,1.1-0.4,1.4
			c-0.4,0.5-1.1,0.7-1.9,0.8c-0.2,0-0.4,0-0.6,0l0.2,2.3l-1.1,0.1L113.2,206z M114.5,208.8c0.1,0,0.3,0,0.6,0
			c0.8-0.1,1.3-0.5,1.3-1.2c0-0.7-0.5-1-1.3-1c-0.3,0-0.5,0.1-0.6,0.1L114.5,208.8z"/>
		<path d="M118.4,208.7c-0.1-0.6-0.1-1-0.2-1.4l1-0.1l0.1,0.8l0,0c0.2-0.7,0.6-1,1.1-1.1c0.1,0,0.2,0,0.3,0l0.1,1.1
			c-0.1,0-0.2,0-0.3,0c-0.5,0.1-0.9,0.4-0.9,1c0,0.1,0,0.2,0,0.4l0.2,2.3l-1.1,0.1L118.4,208.7z"/>
		<path d="M125.9,208.5c0.2,1.6-0.8,2.5-1.9,2.7c-1.3,0.2-2.3-0.6-2.5-2c-0.2-1.5,0.6-2.5,2-2.7
			C124.7,206.3,125.7,207.2,125.9,208.5z M122.5,209c0.1,0.9,0.6,1.4,1.3,1.3c0.6-0.1,1-0.8,0.9-1.7c-0.1-0.7-0.5-1.4-1.3-1.3
			C122.6,207.5,122.4,208.3,122.5,209z"/>
		<path d="M127.1,206.1l1.1,2.1c0.2,0.4,0.4,0.7,0.5,1l0,0c0-0.4,0.1-0.7,0.1-1.2l0.3-2.4l1.2-0.2l-0.9,4.7l-1.1,0.2l-2.4-4.1
			L127.1,206.1z"/>
		<path d="M131.9,203.8c0.1,0.3-0.1,0.6-0.5,0.7c-0.4,0.1-0.7-0.1-0.7-0.5c-0.1-0.3,0.1-0.7,0.5-0.7
			C131.5,203.3,131.8,203.5,131.9,203.8z M131.9,209.7l-0.9-4.4l1.1-0.2l0.9,4.4L131.9,209.7z"/>
		<path d="M136.7,201.9l1.3,5.1c0.1,0.4,0.2,0.9,0.3,1.2l-1,0.2l-0.2-0.7l0,0c-0.1,0.5-0.6,1-1.2,1.1c-1,0.3-2.1-0.4-2.4-1.8
			c-0.4-1.5,0.3-2.5,1.4-2.8c0.6-0.1,1.1,0,1.4,0.3l0,0l-0.6-2.5L136.7,201.9z M136.6,205.9c0-0.1-0.1-0.2-0.1-0.3
			c-0.2-0.4-0.6-0.7-1.1-0.5c-0.7,0.2-0.9,0.9-0.7,1.7c0.2,0.8,0.7,1.3,1.4,1.1c0.4-0.1,0.8-0.5,0.8-1c0-0.1,0-0.2,0-0.3
			L136.6,205.9z"/>
		<path d="M139.9,205.8c0.3,0.8,1,0.9,1.6,0.7c0.5-0.1,0.8-0.3,1.1-0.5l0.4,0.7c-0.3,0.3-0.8,0.5-1.4,0.7c-1.4,0.4-2.5-0.2-2.8-1.5
			c-0.3-1.2,0-2.5,1.4-2.9c1.4-0.4,2.2,0.6,2.5,1.5c0.1,0.2,0.1,0.4,0.1,0.5L139.9,205.8z M141.5,204.5c-0.1-0.4-0.5-1-1.2-0.8
			c-0.7,0.2-0.8,0.9-0.7,1.3L141.5,204.5z"/>
		<path d="M143.9,205.5c0.3,0.1,0.8,0.1,1.2-0.1c0.5-0.2,0.6-0.4,0.5-0.7c-0.1-0.3-0.3-0.4-0.9-0.4c-0.9,0-1.4-0.4-1.6-0.9
			c-0.2-0.7,0.2-1.5,1.2-1.9c0.5-0.2,0.9-0.2,1.2-0.1l0,0.8c-0.2,0-0.6-0.1-1,0.1c-0.4,0.1-0.5,0.4-0.4,0.6c0.1,0.3,0.3,0.3,0.9,0.3
			c0.9,0,1.3,0.3,1.6,0.9c0.3,0.8-0.2,1.5-1.3,1.9c-0.5,0.2-1,0.2-1.4,0.1L143.9,205.5z"/>
		<path d="M154,202.7c-0.2,0.2-0.7,0.6-1.4,0.8c-1.8,0.7-3.4,0-4.1-1.8c-0.7-1.9,0.1-3.6,1.9-4.2c0.7-0.3,1.2-0.3,1.5-0.3l0.1,0.9
			c-0.3,0-0.7,0-1.2,0.2c-1.2,0.5-1.7,1.5-1.2,2.9c0.5,1.3,1.6,1.8,2.8,1.3c0.4-0.2,0.8-0.4,1.1-0.7L154,202.7z"/>
		<path d="M157.3,201.5l-0.3-0.4l0,0c-0.1,0.4-0.4,0.8-1,1.1c-0.8,0.4-1.5,0-1.8-0.7c-0.4-1,0.2-2,1.8-2.6l0-0.1
			c-0.1-0.3-0.4-0.7-1.1-0.4c-0.4,0.2-0.8,0.5-1,0.8l-0.5-0.6c0.2-0.3,0.7-0.7,1.3-1c1.3-0.6,2.1,0.1,2.4,1l0.6,1.5
			c0.2,0.4,0.3,0.7,0.5,1L157.3,201.5z M156.3,199.6c-0.7,0.3-1.4,0.8-1.1,1.4c0.2,0.4,0.5,0.5,0.8,0.3c0.4-0.2,0.6-0.6,0.6-0.9
			c0-0.1,0-0.2-0.1-0.2L156.3,199.6z"/>
		<path d="M158.1,197.8c-0.3-0.5-0.4-0.9-0.6-1.3l0.9-0.4l0.4,0.8l0,0c-0.1-0.7,0.3-1.2,0.7-1.4c0.1,0,0.2-0.1,0.3-0.1l0.5,1
			c-0.1,0-0.2,0-0.3,0.1c-0.5,0.2-0.7,0.7-0.6,1.2c0,0.1,0.1,0.2,0.1,0.3l1,2.1l-1,0.5L158.1,197.8z"/>
		<path d="M162.2,197.1c0.4,0.7,1.1,0.7,1.8,0.4c0.5-0.2,0.8-0.5,1-0.7l0.5,0.6c-0.3,0.3-0.7,0.7-1.3,1c-1.3,0.7-2.5,0.2-3.1-1
			c-0.6-1.1-0.4-2.5,0.9-3.1c1.3-0.7,2.3,0.2,2.7,1.1c0.1,0.2,0.2,0.3,0.2,0.4L162.2,197.1z M163.6,195.5c-0.2-0.4-0.6-0.9-1.3-0.6
			c-0.6,0.3-0.6,1-0.4,1.4L163.6,195.5z"/>
	</g>
	<g>
		<path d="M31.9,191.4l-13.3-8l6.1-20.9l14.2,9.8l-0.7,5.8L31.9,191.4z M19.4,183.1l12.3,7.5l6-12.5l0.7-5.4l-13.2-9.1L19.4,183.1z"
			/>
	</g>
	<g>
		<path d="M176.1,196.6l-9.5-13.2l-0.4-7.2l12.4-9.9l7.8,19.5L176.1,196.6z M167.2,183.1l9,12.5l9.4-10l-7.3-18.4l-11.5,9.2
			L167.2,183.1z"/>
	</g>
</g>
</svg>
